<?xml version="1.0" encoding="UTF-8" standalone="no"?>
<!DOCTYPE svg PUBLIC "-//W3C//DTD SVG 1.1//EN" "http://www.w3.org/Graphics/SVG/1.1/DTD/svg11.dtd">
<svg width="100%" height="100%" viewBox="0 0 2250 2250" version="1.1" xmlns="http://www.w3.org/2000/svg" xmlns:xlink="http://www.w3.org/1999/xlink" xml:space="preserve" xmlns:serif="http://www.serif.com/" style="fill-rule:evenodd;clip-rule:evenodd;stroke-linecap:round;stroke-linejoin:round;stroke-miterlimit:1.5;">
    <g transform="matrix(2.08333,0,0,2.08333,0,0)">
        <g id="logo">
            <rect x="0" y="0" width="1080" height="1080" style="fill:white;"/>
            <g id="og" transform="matrix(0.680098,-0.680098,0.680098,0.680098,-156.06,578.446)">
                <g id="Face-waves" serif:id="Face waves">
                    <g transform="matrix(0.417698,0,0,0.417698,314.443,421.183)">
                        <path d="M0,1080C360,791.879 720,790.585 1080,1080" style="fill:none;stroke:black;stroke-width:248.91px;"/>
                    </g>
                    <g transform="matrix(0.648148,0,0,0.692597,190,-2.86731)">
                        <path d="M0,1080C360,791.879 720,790.585 1080,1080" style="fill:none;stroke:black;stroke-width:155.01px;"/>
                    </g>
                    <g id="eyes" transform="matrix(1,0,0,1,3.49214,-21.5215)">
                        <g transform="matrix(3.93997,0,0,3.93997,-1187.34,-3041.62)">
                            <circle cx="413.733" cy="1030.93" r="12.911"/>
                        </g>
                        <g transform="matrix(3.93997,0,0,3.93997,-999.836,-3041.62)">
                            <circle cx="413.733" cy="1030.93" r="12.911"/>
                        </g>
                    </g>
                </g>
                <g id="Face-waves1" serif:id="Face waves" transform="matrix(1,1.22465e-16,1.22465e-16,-1,-3.55271e-14,966.94)">
                    <g>
                        <g transform="matrix(0.417698,0,0,0.417698,314.443,421.183)">
                            <path d="M0,1080C360,791.879 720,790.585 1080,1080" style="fill:none;stroke:black;stroke-width:248.91px;"/>
                        </g>
                        <g transform="matrix(0.648148,0,0,0.692597,190,-2.86731)">
                            <path d="M0,1080C360,791.879 720,790.585 1080,1080" style="fill:none;stroke:black;stroke-width:155.01px;"/>
                        </g>
                        <g id="eyes1" serif:id="eyes" transform="matrix(1,0,0,1,3.49214,-21.5215)">
                            <g transform="matrix(3.93997,0,0,3.93997,-1187.34,-3041.62)">
                                <circle cx="413.733" cy="1030.93" r="12.911"/>
                            </g>
                            <g transform="matrix(3.93997,0,0,3.93997,-999.836,-3041.62)">
                                <circle cx="413.733" cy="1030.93" r="12.911"/>
                            </g>
                        </g>
                    </g>
                </g>
            </g>
        </g>
    </g>
</svg>
